<svg xmlns="http://www.w3.org/2000/svg" xmlns:xlink="http://www.w3.org/1999/xlink" version="1.1" x="0px" y="0px" viewBox="0 0 110 110" enable-background="new 0 0 100 100" xml:space="preserve"><g><path d="M28.74,40.293c0-12.81,4.727-21.415,9.142-21.415v-2.5c-6.528,0-11.642,10.505-11.642,23.915   c0,13.411,5.114,23.916,11.642,23.916v-2.5C33.467,61.709,28.74,53.104,28.74,40.293z"/><path d="M37.882,27.283c-3.786,0-6.642,5.593-6.642,13.01c0,7.418,2.855,13.012,6.642,13.012s6.642-5.594,6.642-13.012   C44.524,32.876,41.669,27.283,37.882,27.283z M37.882,50.805c-1.955,0-4.142-4.496-4.142-10.512c0-6.015,2.187-10.51,4.142-10.51   c1.956,0,4.143,4.495,4.143,10.51C42.024,46.309,39.837,50.805,37.882,50.805z"/><path d="M59.985,6.927H37.882c-4.45,0-8.552,3.6-11.548,10.136c-2.855,6.226-4.427,14.476-4.427,23.23   c0,18.711,7.017,33.367,15.976,33.367h13.476v19.635h24.604V40.293C75.962,21.583,68.944,6.927,59.985,6.927z M24.407,40.293   c0-8.402,1.491-16.282,4.199-22.188c2.529-5.515,5.91-8.678,9.276-8.678c7.305,0,13.477,14.135,13.477,30.866   S45.187,71.16,37.882,71.16S24.407,57.024,24.407,40.293z M44.056,71.16c3.034-2.585,5.569-7.042,7.302-12.721V71.16H44.056z    M53.858,40.293c0-14.114-3.995-25.917-9.802-30.866h4.826c7.305,0,13.477,14.135,13.477,30.866v50.502h-1.11v-2.916h-2.5v2.916   h-1.201v-2.916h-2.5v2.916h-1.188V40.293z M73.462,90.795h-1.111v-2.916h-2.5v2.916h-1.201v-2.916h-2.5v2.916h-1.291V40.293   c0-14.114-3.994-25.917-9.803-30.866h4.93c7.305,0,13.477,14.135,13.477,30.866V90.795z"/></g></svg>
