<svg xmlns="http://www.w3.org/2000/svg" xmlns:xlink="http://www.w3.org/1999/xlink" version="1.0" x="0px" y="0px" viewBox="0 0 50 50" enable-background="new 0 0 50 50" xml:space="preserve"><g><path d="M14.7,17.8c-4,0-7.2,3.3-7.2,7.2c0,4,3.3,7.2,7.2,7.2h20.7c4,0,7.2-3.3,7.2-7.2c0-4-3.3-7.2-7.2-7.2c-4,0-7.2,3.3-7.2,7.2   c0,1.8,0.7,3.5,1.8,4.7h-9.7c1.1-1.3,1.8-2.9,1.8-4.7C21.9,21,18.7,17.8,14.7,17.8z M9.9,25c0-2.6,2.1-4.7,4.7-4.7s4.7,2.1,4.7,4.7   c0,2.6-2.1,4.7-4.7,4.7S9.9,27.6,9.9,25z M30.6,25c0-2.6,2.1-4.7,4.7-4.7c2.6,0,4.7,2.1,4.7,4.7c0,2.6-2.1,4.7-4.7,4.7   C32.7,29.7,30.6,27.6,30.6,25z"/></g></svg>
